<?xml version="1.0" encoding="UTF-8"?><svg xmlns="http://www.w3.org/2000/svg" width="66" height="32" viewBox="0 0 66 32" fill="none">
  <g clip-path="url(#a)">
    <path d="M53.286 31.726h1.918V25.06c0-2.124 1.127-3.7 3.458-3.7 1.474 0 2.374.941 2.374 2.375v7.992h1.918v-7.762c0-2.528-.954-4.313-4.021-4.313-1.67 0-2.981.69-3.794 2.146h-.043v-1.872h-1.81v11.801Zm-11.36-5.9c0-2.88 1.626-4.478 3.642-4.478s3.642 1.598 3.642 4.478c0 2.857-1.626 4.455-3.642 4.455s-3.653-1.598-3.642-4.455Zm-2.038 0c0 3.448 1.962 6.163 5.68 6.163s5.68-2.715 5.68-6.163c0-3.47-1.962-6.186-5.68-6.186s-5.68 2.715-5.68 6.186Zm-.552-5.912h-2.017l-3.186 9.842h-.044l-3.273-9.842H28.67l4.335 11.801h2.06l4.27-11.801ZM28.42 30.172a1.542 1.542 0 0 1-.585.11c-.607 0-.607-.417-.607-1.325V22.88c0-2.76-2.287-3.24-4.39-3.24-2.601 0-4.834 1.028-4.953 3.951h1.918c.087-1.74 1.29-2.233 2.916-2.233 1.225 0 2.601.274 2.601 1.96 0 1.456-1.81 1.324-3.934 1.74-1.995.383-3.956.964-3.956 3.635 0 2.354 1.745 3.306 3.87 3.306 1.625 0 3.056-.57 4.118-1.828 0 1.28.629 1.828 1.626 1.828.607 0 1.04-.11 1.376-.317v-1.511ZM25.3 27.61c0 1.073-1.04 2.671-3.577 2.671-1.17 0-2.266-.46-2.266-1.74 0-1.435 1.084-1.894 2.352-2.124 1.29-.23 2.732-.252 3.48-.8l.01 1.993Zm-11.88 4.116h1.918V15.414H13.42v16.312Zm-13.42 0h11.208v-1.828H2.146V24.26h8.39v-1.828h-8.39v-5.19h8.997v-1.828H0v16.312Z" fill="#000"/>
    <path d="M47.92 7.455c.024-.65.01-1.3-.043-1.948-5.745.492-13.81 4.215-21.278 10.29-.845.69-1.658 1.38-2.428 2.08h.477c.141-.109.271-.23.412-.35 7.86-6.382 16.443-10.094 22.275-10.094.195 0 .39.011.585.022Zm6.352-.262c-.824-.854-1.994-1.358-3.393-1.588.095.833.145 1.67.152 2.507a5.26 5.26 0 0 1 1.745 1.183c1.063 1.094 1.54 2.594 1.431 4.466-.076 1.27-.423 2.66-1.008 4.128h.314c1.269-2.332 2.016-4.522 2.136-6.427.097-1.795-.369-3.23-1.377-4.27Z" fill="#0C2074"/>
    <path d="M49.557 2.299C49.047.777 48.299 0 47.335 0h-.011c-1.767 0-3.967 2.627-6.157 7.16.38-.143.759-.274 1.127-.405 1.529-2.595 2.981-4.128 4.033-4.128h.097c.586.055 1.02.624 1.268 1.697.65 2.76-.065 8.167-1.658 13.871 1.225.077 2.298.383 3.198.898 1.224-7.105 1.441-13.477.325-16.794Zm-9.604 7.576a73.956 73.956 0 0 0-1.474 3.853 84.107 84.107 0 0 0-1.333 4.15h.466a65.164 65.164 0 0 1 2.309-6.35c.293-.679.585-1.314.878-1.938-.282.088-.564.175-.846.285Z" fill="#0075C9"/>
    <path d="M65.577 29.953a.949.949 0 0 1-.608 1.634.93.93 0 0 1-.67-.255l-.044-.044a.948.948 0 0 1 .65-1.609c.25.001.491.1.672.274Zm.109-.11a1.083 1.083 0 0 0-1.373-.141c-.21.14-.364.35-.438.593-.073.244-.06.505.036.74s.27.429.492.548a1.076 1.076 0 0 0 1.353-.275 1.104 1.104 0 0 0-.07-1.465Zm-.607.723a.398.398 0 0 1-.195.022h-.185v-.438h.185a.484.484 0 0 1 .249.044.191.191 0 0 1 .076.175.197.197 0 0 1-.13.197Zm-.596.646h.206v-.471h.162a.463.463 0 0 1 .239.044.298.298 0 0 1 .108.273v.165h.195l-.01-.011a.14.14 0 0 1-.012-.066v-.175a.299.299 0 0 0-.065-.186.31.31 0 0 0-.206-.12.462.462 0 0 0 .174-.055.29.29 0 0 0 .12-.241.313.313 0 0 0-.185-.307 1.104 1.104 0 0 0-.325-.044h-.412l.01 1.194Z" fill="#000"/>
  </g>
</svg>
